Jump_normalized_pl14_filtered_grf
version=1
nRows=25
nColumns=37
inDegrees=yes
endheader
time		1_ground_force_vx		1_ground_force_vy		1_ground_force_vz		1_ground_force_px		1_ground_force_py		1_ground_force_pz		1_ground_torque_x		1_ground_torque_y		1_ground_torque_z		2_ground_force_vx		2_ground_force_vy		2_ground_force_vz		2_ground_force_px		2_ground_force_py		2_ground_force_pz		2_ground_torque_x		2_ground_torque_y		2_ground_torque_z		3_ground_force_vx		3_ground_force_vy		3_ground_force_vz		3_ground_force_px		3_ground_force_py		3_ground_force_pz		3_ground_torque_x		3_ground_torque_y		3_ground_torque_z		4_ground_force_vx		4_ground_force_vy		4_ground_force_vz		4_ground_force_px		4_ground_force_py		4_ground_force_pz		4_ground_torque_x		4_ground_torque_y		4_ground_torque_z		
0.482000		0.000000		-0.000000		-0.000000		0.131163		0.000000		0.255524		-0.000000		-0.000000		0.000000		-0.000000		-0.000000		-0.000000		-0.134203		0.000000		0.291502		-0.000000		0.000000		-0.000000		9.599196		340.534695		159.728836		0.375494		1.309251		1.913922		-0.341354		-12.109649		-5.680068		-28.411524		327.400440		180.712464		-0.265900		1.309015		1.925564		-1.396342		16.090760		8.881482		
0.486242		0.000000		-0.000000		-0.000000		0.131163		0.000000		0.255524		-0.000000		-0.000000		0.000000		0.000000		-0.000000		-0.000000		-0.134203		0.000000		0.291502		-0.000000		0.000000		-0.000000		8.924752		341.494030		161.659161		0.375501		1.309333		1.913956		-0.317451		-12.146873		-5.750183		-28.181871		326.590134		180.857717		-0.265927		1.309005		1.925597		-1.387547		16.079813		8.904612		
0.490485		0.000000		-0.000000		-0.000000		0.131163		0.000000		0.255524		-0.000000		-0.000000		0.000000		0.000000		-0.000000		-0.000000		-0.134203		0.000000		0.291502		-0.000000		0.000000		-0.000000		8.213312		342.661058		163.567400		0.375531		1.309390		1.913976		-0.291783		-12.173254		-5.810837		-27.986574		325.850266		181.074449		-0.265954		1.308993		1.925627		-1.381244		16.081952		8.936714		
0.494727		-0.000000		0.000000		0.000000		0.131163		0.000000		0.255524		0.000000		0.000000		-0.000000		0.000000		0.000000		0.000000		-0.134203		0.000000		0.291502		0.000000		-0.000000		0.000000		7.507659		343.954813		165.479017		0.375576		1.309414		1.913980		-0.266156		-12.193639		-5.866443		-27.828959		325.225202		181.365087		-0.265972		1.308986		1.925652		-1.376724		16.089194		8.972300		
0.498970		-0.000000		0.000000		0.000000		0.131163		0.000000		0.255524		0.000000		0.000000		-0.000000		0.000000		0.000000		0.000000		-0.134203		0.000000		0.291502		0.000000		-0.000000		0.000000		6.838041		345.219559		167.444160		0.375619		1.309411		1.913979		-0.241965		-12.215645		-5.925037		-27.697368		324.717782		181.709767		-0.265981		1.308980		1.925670		-1.373003		16.096779		9.007644		
0.503212		-0.000000		0.000000		0.000000		0.131163		0.000000		0.255524		0.000000		0.000000		-0.000000		-0.000000		0.000000		0.000000		-0.134203		0.000000		0.291502		0.000000		-0.000000		0.000000		6.255878		346.302805		169.441894		0.375647		1.309395		1.913982		-0.221158		-12.242477		-5.990100		-27.584194		324.289071		182.117018		-0.265981		1.308976		1.925680		-1.370004		16.106227		9.045073		
0.507455		-0.000000		0.000000		0.000000		0.131163		0.000000		0.255524		0.000000		0.000000		-0.000000		-0.000000		0.000000		0.000000		-0.134203		0.000000		0.291502		0.000000		-0.000000		0.000000		5.797310		347.104257		171.381876		0.375658		1.309375		1.913994		-0.204937		-12.270273		-6.058417		-27.500727		323.893580		182.621995		-0.265974		1.308969		1.925687		-1.368791		16.121117		9.089624		
0.511697		0.000000		-0.000000		-0.000000		0.131163		0.000000		0.255524		-0.000000		-0.000000		0.000000		-0.000000		-0.000000		-0.000000		-0.134203		0.000000		0.291502		-0.000000		0.000000		-0.000000		5.441354		347.581957		173.171968		0.375660		1.309363		1.914010		-0.192437		-12.292468		-6.124342		-27.480708		323.513905		183.231638		-0.265962		1.308959		1.925696		-1.371190		16.142205		9.142614		
0.515939		0.000000		-0.000000		-0.000000		0.131163		0.000000		0.255524		-0.000000		-0.000000		0.000000		-0.000000		-0.000000		-0.000000		-0.134203		0.000000		0.291502		-0.000000		0.000000		-0.000000		5.131851		347.741947		174.787190		0.375658		1.309363		1.914030		-0.181613		-12.306348		-6.185598		-27.546506		323.153129		183.913321		-0.265946		1.308947		1.925709		-1.378171		16.167573		9.201310		
0.520182		0.000000		-0.000000		-0.000000		0.131163		0.000000		0.255524		-0.000000		-0.000000		0.000000		0.000000		-0.000000		-0.000000		-0.134203		0.000000		0.291502		-0.000000		0.000000		-0.000000		4.816851		347.629295		176.257427		0.375658		1.309376		1.914052		-0.170652		-12.315896		-6.244492		-27.690665		322.823280		184.638802		-0.265927		1.308937		1.925724		-1.389224		16.195844		9.263215		
0.524424		-0.000000		0.000000		-0.000000		0.131163		0.000000		0.255524		0.000000		0.000000		-0.000000		0.000000		-0.000000		-0.000000		-0.134203		0.000000		0.291502		-0.000000		0.000000		-0.000000		4.487791		347.315369		177.629397		0.375660		1.309396		1.914071		-0.159297		-12.328203		-6.305080		-27.860351		322.526165		185.408806		-0.265905		1.308926		1.925738		-1.401690		16.226703		9.328154		
0.528667		-0.000000		0.000000		0.000000		0.131163		0.000000		0.255524		0.000000		0.000000		-0.000000		0.000000		0.000000		0.000000		-0.134203		0.000000		0.291502		0.000000		-0.000000		0.000000		4.173605		346.873130		178.920663		0.375665		1.309404		1.914074		-0.148572		-12.348015		-6.369232		-27.998637		322.218273		186.246378		-0.265885		1.308914		1.925748		-1.412720		16.258084		9.397386		
0.532909		-0.000000		0.000000		0.000000		0.131163		0.000000		0.255524		0.000000		0.000000		-0.000000		0.000000		0.000000		0.000000		-0.134203		0.000000		0.291502		0.000000		-0.000000		0.000000		3.901919		346.352169		180.128669		0.375666		1.309384		1.914046		-0.139413		-12.374924		-6.435874		-28.052921		321.826831		187.152077		-0.265868		1.308900		1.925760		-1.419502		16.284715		9.470057		
0.537152		-0.000000		0.000000		0.000000		0.131163		0.000000		0.255524		0.000000		0.000000		-0.000000		-0.000000		0.000000		0.000000		-0.134203		0.000000		0.291502		0.000000		-0.000000		0.000000		3.654468		345.769385		181.244882		0.375650		1.309329		1.913983		-0.131090		-12.403144		-6.501462		-27.989782		321.291230		188.110724		-0.265861		1.308890		1.925776		-1.420024		16.300271		9.543541		
0.541394		0.000000		-0.000000		-0.000000		0.131163		0.000000		0.255524		-0.000000		-0.000000		0.000000		-0.000000		-0.000000		0.000000		-0.134203		0.000000		0.291502		0.000000		-0.000000		-0.000000		3.383866		345.130247		182.239119		0.375605		1.309251		1.913904		-0.121814		-12.424194		-6.560347		-27.808377		320.606292		189.113013		-0.265863		1.308884		1.925798		-1.414074		16.303041		9.616521		
0.545636		0.000000		-0.000000		-0.000000		0.131163		0.000000		0.255524		-0.000000		-0.000000		0.000000		-0.000000		-0.000000		-0.000000		-0.134203		0.000000		0.291502		-0.000000		0.000000		-0.000000		3.061041		344.431232		183.093191		0.375536		1.309182		1.913842		-0.110493		-12.432778		-6.609032		-27.544509		319.819896		190.149607		-0.265875		1.308885		1.925824		-1.403730		16.298741		9.690452		
0.549879		0.000000		-0.000000		-0.000000		0.131163		0.000000		0.255524		-0.000000		-0.000000		0.000000		0.000000		-0.000000		-0.000000		-0.134203		0.000000		0.291502		-0.000000		0.000000		-0.000000		2.718004		343.670695		183.829544		0.375456		1.309149		1.913824		-0.098313		-12.430880		-6.649282		-27.231951		318.985763		191.173455		-0.265891		1.308892		1.925848		-1.391183		16.295836		9.766365		
0.554121		0.000000		-0.000000		-0.000000		0.131163		0.000000		0.255524		-0.000000		-0.000000		0.000000		0.000000		-0.000000		-0.000000		-0.134203		0.000000		0.291502		-0.000000		0.000000		-0.000000		2.446338		342.864412		184.501862		0.375392		1.309171		1.913857		-0.088650		-12.424660		-6.685946		-26.846202		318.134509		192.071879		-0.265906		1.308901		1.925869		-1.375372		16.298518		9.840137		
0.558364		-0.000000		0.000000		0.000000		0.131163		0.000000		0.255524		0.000000		0.000000		-0.000000		0.000000		0.000000		-0.000000		-0.134203		0.000000		0.291502		0.000000		-0.000000		0.000000		2.300485		342.027863		185.172458		0.375354		1.309240		1.913923		-0.083521		-12.417595		-6.722834		-26.335400		317.273953		192.747679		-0.265914		1.308909		1.925887		-1.353370		16.304631		9.905256		
0.562606		-0.000000		0.000000		0.000000		0.131163		0.000000		0.255524		0.000000		0.000000		-0.000000		0.000000		0.000000		0.000000		-0.134203		0.000000		0.291502		0.000000		-0.000000		0.000000		2.276918		341.157450		185.859132		0.375339		1.309339		1.914004		-0.082820		-12.409160		-6.760385		-25.703703		316.426149		193.201998		-0.265911		1.308915		1.925904		-1.324953		16.310873		9.959017		
0.566848		-0.000000		0.000000		0.000000		0.131163		0.000000		0.255524		0.000000		0.000000		-0.000000		-0.000000		0.000000		0.000000		-0.134203		0.000000		0.291502		0.000000		-0.000000		0.000000		2.303806		340.195503		186.584794		0.375336		1.309441		1.914084		-0.083952		-12.396922		-6.799259		-25.033864		315.618345		193.544658		-0.265899		1.308923		1.925921		-1.294218		16.317061		10.006010		
0.571091		-0.000000		0.000000		0.000000		0.131163		0.000000		0.255524		0.000000		0.000000		-0.000000		-0.000000		0.000000		0.000000		-0.134203		0.000000		0.291502		0.000000		-0.000000		0.000000		2.306796		339.063884		187.381995		0.375329		1.309532		1.914156		-0.084221		-12.379258		-6.841337		-24.408654		314.847117		193.905354		-0.265884		1.308932		1.925936		-1.265536		16.324138		10.053571		
0.575333		0.000000		-0.000000		-0.000000		0.131163		0.000000		0.255524		-0.000000		-0.000000		0.000000		-0.000000		-0.000000		0.000000		-0.134203		0.000000		0.291502		-0.000000		0.000000		-0.000000		2.224465		337.708018		188.283041		0.375308		1.309606		1.914223		-0.081392		-12.356509		-6.889150		-23.874182		314.090220		194.340155		-0.265873		1.308946		1.925952		-1.241352		16.331305		10.104831		
0.579576		0.000000		-0.000000		-0.000000		0.131163		0.000000		0.255524		-0.000000		-0.000000		0.000000		-0.000000		-0.000000		-0.000000		-0.134203		0.000000		0.291502		-0.000000		0.000000		-0.000000		2.016728		336.139546		189.292827		0.375275		1.309676		1.914293		-0.073981		-12.330872		-6.943978		-23.469899		313.347453		194.861944		-0.265873		1.308962		1.925977		-1.223572		16.335952		10.158867		
0.583818		0.000000		-0.000000		-0.000000		0.131163		0.000000		0.255524		-0.000000		-0.000000		0.000000		0.000000		-0.000000		-0.000000		-0.134203		0.000000		0.291502		-0.000000		0.000000		-0.000000		1.698864		334.461484		190.366166		0.375235		1.309743		1.914368		-0.062498		-12.304155		-7.003183		-23.227930		312.690244		195.485036		-0.265886		1.308975		1.926015		-1.213595		16.337194		10.213548		
